<?xml version="1.0" encoding="utf-8"?>
<!-- Generator: Adobe Illustrator 24.2.0, SVG Export Plug-In . SVG Version: 6.00 Build 0)  -->
<svg version="1.1" id="Layer_1" xmlns="http://www.w3.org/2000/svg" xmlns:xlink="http://www.w3.org/1999/xlink" x="0px" y="0px"
	 viewBox="0 0 178 178" style="enable-background:new 0 0 178 178;" xml:space="preserve">
<style type="text/css">
	.st0{fill:#BF210C;}
	.st1{fill:#EAA62F;}
</style>
<path class="st0" d="M26.4,113.5c0.6,1.8,3.1,1.8,3.4,0.1c1.5-9.5,7.1-22.6,25.1-28.6c30-9.9,46.5-14.2,46.5-14.2
	s-8.8,15.3-10.7,34.9c-1.8,18.8-10.2,36.5-28.5,39.8c-1.7,0.3-1.7,2.8,0.1,3.4c13.5,5.1,32.3,7,50.3-8.7c5.6-4.7,12.1-12.6,18-24.9
	c7.3-15.7,7.6-26.2,6.9-31.5c-0.2-1.6-2.2-2.3-3.2-1.2c-11.6,13.3-20,11.2-15.9,1.1c1.6-4,5.9-9.6,11.8-15.6
	c10-10,16.9-23.4,18.1-38.9c0.3-4,0.1-8.2-0.6-12.5c-0.3-1.5-2.2-2.2-3.2-1.1c-6.2,7.3-26,26.1-68.2,30.1C37.6,50,27.8,73.1,25.7,80
	C21.8,93.1,23.1,104.4,26.4,113.5z"/>
<ellipse transform="matrix(0.7071 -0.7071 0.7071 0.7071 -53.5275 78.3289)" class="st0" cx="67.8" cy="103.8" rx="45.5" ry="51.2"/>
<path class="st1" d="M55.8,143c-1.3-0.5-1.4-2.4,0-2.6c7.2-1.2,17.2-5.5,21.8-19.2c7.7-22.8,11-35.4,11-35.4s-11.7,6.8-26.5,8.4
	c-14.3,1.5-27.7,8-30.4,21.9c-0.2,1.3-2.1,1.3-2.6,0C25.4,105.9,24,91.6,36,77.8c3.6-4.3,9.6-9.3,19-13.8
	c11.9-5.7,19.9-5.9,23.9-5.4c1.2,0.1,1.8,1.6,0.9,2.4c-10.2,8.8-8.6,15.2-0.9,12c3.1-1.3,7.3-4.5,11.9-9.1c7.6-7.6,17.9-13,29.6-14
	c3.1-0.3,6.2-0.2,9.4,0.4c1.2,0.2,1.7,1.7,0.8,2.4c-5.6,4.7-20,19.9-23.3,51.9c-3.4,29.4-21,36.9-26.2,38.6
	C71.3,146.4,62.7,145.5,55.8,143z"/>
</svg>
