<?xml version="1.0" encoding="utf-8"?>
<!-- Generator: Adobe Illustrator 24.2.0, SVG Export Plug-In . SVG Version: 6.00 Build 0)  -->
<svg version="1.1" id="Layer_1" xmlns="http://www.w3.org/2000/svg" xmlns:xlink="http://www.w3.org/1999/xlink" x="0px" y="0px"
	 viewBox="0 0 560 193" style="enable-background:new 0 0 560 193;" xml:space="preserve">
<style type="text/css">
	.st0{fill:#213743;}
	.st1{fill:#1EC64A;}
	.st2{fill:#BF210C;}
	.st3{fill:#EAA62F;}
</style>
<path class="st0" d="M0,157.7C0,118.1,32.1,86,71.7,86h487.6l0,0c0,39.6-32.1,71.7-71.7,71.7H0L0,157.7z"/>
<path class="st1" d="M153.1,157.6c-1.3,0.2-3.2,0.5-5.7,0.9c-2.4,0.5-4.9,0.7-7.4,0.7c-2.5,0-4.8-0.2-6.9-0.5c-1.9-0.3-3.6-1-5-2.1
	c-1.4-1-2.5-2.4-3.3-4.1c-0.7-1.8-1-4.2-1-7.1V45.5c1.3-0.2,3.1-0.5,5.5-0.9c2.5-0.5,5-0.7,7.6-0.7s4.8,0.2,6.7,0.5
	c2.1,0.3,3.8,1,5.2,2.1c1.4,1,2.4,2.5,3.1,4.3c0.8,1.7,1.2,4,1.2,6.9V157.6z"/>
<path class="st1" d="M201.5,157.6c-1.3,0.2-3.2,0.5-5.7,0.9c-2.4,0.5-4.9,0.7-7.4,0.7c-2.5,0-4.8-0.2-6.9-0.5c-1.9-0.3-3.6-1-5-2.1
	c-1.4-1-2.5-2.4-3.3-4.1c-0.7-1.8-1-4.2-1-7.1v-70c1.3-0.2,3.1-0.5,5.5-0.9c2.5-0.5,5-0.7,7.6-0.7s4.8,0.2,6.7,0.5
	c2.1,0.3,3.8,1,5.2,2.1c1.4,1,2.4,2.5,3.1,4.3c0.8,1.7,1.2,4,1.2,6.9V157.6z"/>
<path class="st1" d="M273.1,104.7c0-3.6-1-6.1-3.1-7.7c-2-1.7-4.6-2.6-8.1-2.6c-2.3,0-4.6,0.3-6.9,0.9c-2.2,0.6-4.1,1.4-5.7,2.6
	v59.7c-1.1,0.3-3,0.7-5.5,1c-2.4,0.3-4.9,0.5-7.6,0.5c-2.5,0-4.8-0.2-6.9-0.5c-1.9-0.3-3.6-1-5-2.1c-1.4-1-2.5-2.4-3.3-4.1
	c-0.7-1.8-1-4.2-1-7.1V93.7c0-3.1,0.6-5.6,1.9-7.6c1.4-2,3.2-3.7,5.5-5.3c3.9-2.8,8.8-5,14.6-6.7c6-1.7,12.6-2.6,19.8-2.6
	c13,0,22.9,2.9,29.9,8.6c7,5.6,10.5,13.5,10.5,23.6v53.9c-1.1,0.3-3,0.7-5.5,1c-2.4,0.3-4.9,0.5-7.6,0.5c-2.5,0-4.8-0.2-6.9-0.5
	c-2-0.3-3.6-1-5-2.1c-1.4-1-2.5-2.4-3.3-4.1c-0.7-1.8-1-4.2-1-7.1V104.7z"/>
<path class="st1" d="M402.1,142.6c-0.6,5.4-2.2,9.5-4.8,12.4c-2.5,2.9-6.3,4.3-11.2,4.3c-3.7,0-6.9-0.9-9.8-2.6
	c-2.9-1.8-6-4.9-9.3-9.1l-17-21.3v31.3c-1.3,0.2-3.2,0.5-5.7,0.9c-2.4,0.5-4.9,0.7-7.4,0.7c-2.5,0-4.8-0.2-6.9-0.5
	c-2-0.3-3.6-1-5-2.1c-1.4-1-2.5-2.4-3.3-4.1c-0.7-1.8-1-4.2-1-7.1V45.7c1.3-0.3,3.1-0.7,5.5-1c2.5-0.5,5-0.7,7.6-0.7
	c2.5,0,4.8,0.2,6.7,0.5c2.1,0.3,3.8,1,5.2,2.1c1.4,1,2.4,2.5,3.1,4.3c0.8,1.7,1.2,4,1.2,6.9v45.4l29.6-30.3c6,0,10.7,1.3,14.3,4
	c3.7,2.6,5.5,6,5.5,10c0,1.7-0.3,3.3-0.9,4.8c-0.6,1.4-1.5,2.8-2.8,4.3c-1.1,1.5-2.7,3.1-4.6,4.8c-1.8,1.6-4,3.5-6.5,5.7l-10,8.6
	L402.1,142.6z"/>
<path class="st1" d="M65.4,101.1c4.7,1.2,8.5,1.1,11.5-0.3c3.1-1.5,5.3-4.5,6.5-8.9c1.1-4.2,0.7-7.8-1.4-10.7
	c-1.9-3-5.4-5.2-10.4-6.5c-1.8-0.5-3.3-0.8-4.5-1c-1.1-0.3-2.3-0.5-3.6-0.6l-6.9,25.8L65.4,101.1z M42.5,152.1
	c-1.3,0-3.3-0.2-6.1-0.6c-2.6-0.3-5.2-0.9-7.8-1.6c-2.5-0.7-4.8-1.5-6.6-2.5c-1.8-0.8-3.2-1.9-4.3-3.3c-1.1-1.4-1.7-3-1.9-5
	s0.1-4.4,0.9-7.2l21-78.3c0.6-2.3,1.7-3.9,3.3-4.8c1.7-1,3.7-1.6,6.2-1.7c4.1-0.3,8.6-0.1,13.6,0.6c5.1,0.6,10,1.6,14.9,2.9
	c15.3,4.1,26.1,10.5,32.4,19.2c6.3,8.7,8,18.7,5,29.8c-1.5,5.4-3.7,10.1-6.6,14.1c-2.8,3.9-6.4,7-10.7,9.3
	c-4.2,2.2-9.1,3.5-14.8,3.9c-5.5,0.3-11.7-0.5-18.5-2.3l-11.8-3.2L42.5,152.1z"/>
<path class="st1" d="M175.1,39.9c-2.9,3-4.3,6.7-4.3,11c0,4.4,1.4,8,4.3,11c3,3,6.9,4.5,11.7,4.5c4.8,0,8.7-1.5,11.5-4.5
	c3-3,4.5-6.7,4.5-11c0-4.4-1.5-8-4.5-11c-2.9-3-6.7-4.5-11.5-4.5C182,35.4,178.1,36.9,175.1,39.9z"/>
<path class="st2" d="M385.5,129.6c0.6,1.8,3.1,1.8,3.4,0.1c1.5-9.5,7.1-22.6,25.1-28.6c30-9.9,46.5-14.2,46.5-14.2
	s-8.8,15.3-10.7,34.9c-1.8,18.8-10.2,36.5-28.5,39.8c-1.7,0.3-1.7,2.8,0.1,3.4c13.5,5.1,32.3,7,50.3-8.7c5.6-4.7,12.1-12.6,18-24.9
	c7.3-15.7,7.6-26.2,6.9-31.5c-0.2-1.6-2.2-2.3-3.2-1.2c-11.6,13.3-20,11.2-15.9,1.1c1.6-4,5.9-9.6,11.8-15.6
	c10-10,16.9-23.4,18.1-38.9c0.3-4,0.1-8.2-0.6-12.5c-0.3-1.5-2.2-2.2-3.2-1.1c-6.2,7.3-26,26.1-68.2,30.1
	c-38.7,4.1-48.5,27.3-50.6,34.1C380.9,109.2,382.2,120.5,385.5,129.6z"/>
<ellipse transform="matrix(0.7071 -0.7071 0.7071 0.7071 40.27 336.9702)" class="st2" cx="426.9" cy="119.9" rx="45.5" ry="51.2"/>
<path class="st3" d="M414.9,159.1c-1.3-0.5-1.4-2.4,0-2.6c7.2-1.2,17.2-5.5,21.8-19.2c7.7-22.8,11-35.4,11-35.4s-11.7,6.8-26.5,8.4
	c-14.3,1.5-27.7,8-30.4,21.9c-0.2,1.3-2.1,1.3-2.6,0c-3.8-10.2-5.1-24.5,6.9-38.3c3.6-4.3,9.6-9.3,19-13.8
	c11.9-5.7,19.9-5.9,23.9-5.4c1.2,0.1,1.8,1.6,0.9,2.4c-10.2,8.8-8.6,15.2-0.9,12c3.1-1.3,7.3-4.5,11.9-9.1c7.6-7.6,17.9-13,29.6-14
	c3.1-0.3,6.2-0.2,9.4,0.4c1.2,0.2,1.7,1.7,0.8,2.4c-5.6,4.7-20,19.9-23.3,51.9c-3.4,29.4-21,36.9-26.2,38.6
	C430.4,162.5,421.8,161.6,414.9,159.1z"/>
</svg>
